# xmcd
#
# Track frame offsets:
#	150
#	9466
#	25047
#	38791
#	54356
#
# Disc length: 915 seconds
# Revision: 0
# Processed by: cddbd v1.5.2PL0 Copyright (c) Steve Scherf et al.
# Submitted via: dBpowerAMP V12.0
#
DISCID=2e039105
DTITLE=Nell Robinson and Jim Nunally Band - Nell Robinson and Jim Nunally Band
DYEAR=2016
DGENRE=Country
TTITLE0=Jump the Mississippi
TTITLE1=Complicated
TTITLE2=I Hear a Southwind
TTITLE3=Mirror
TTITLE4=HillBilly Boy
EXTD=
EXTT0=
EXTT1=
EXTT2=
EXTT3=
EXTT4=
PLAYORDER=
